<svg xmlns="http://www.w3.org/2000/svg"  viewBox="0 0 50 50" width="50px" height="50px"><path d="M 9 4 C 6.2495759 4 4 6.2495759 4 9 L 4 41 C 4 43.750424 6.2495759 46 9 46 L 41 46 C 43.750424 46 46 43.750424 46 41 L 46 9 C 46 6.2495759 43.750424 4 41 4 L 9 4 z M 9 6 L 41 6 C 42.671576 6 44 7.3284241 44 9 L 44 41 C 44 42.671576 42.671576 44 41 44 L 9 44 C 7.3284241 44 6 42.671576 6 41 L 6 9 C 6 7.3284241 7.3284241 6 9 6 z M 24.896484 16.998047 C 24.553446 17.002592 24.224693 17.14114 23.976562 17.376953 C 23.970148 17.382989 23.959409 17.388382 23.953125 17.394531 C 23.953125 17.394531 23.951172 17.396484 23.951172 17.396484 C 23.889565 17.457262 23.835578 17.525184 23.787109 17.595703 C 23.768861 17.622654 23.754725 17.653116 23.738281 17.681641 C 23.706881 17.735337 23.67613 17.788312 23.652344 17.845703 L 17.449219 33.056641 C 17.165219 33.753641 17.501266 34.548031 18.197266 34.832031 C 18.893266 35.116031 19.688656 34.782937 19.972656 34.085938 L 24.886719 22.033203 L 26.316406 25.671875 C 26.591406 26.371875 27.380078 26.716406 28.080078 26.441406 C 28.779078 26.166406 29.124609 25.375781 28.849609 24.675781 L 26.195312 17.917969 C 26.071682 17.559897 25.805904 17.25392 25.427734 17.099609 C 25.253484 17.028609 25.073375 16.995703 24.896484 16.998047 z M 37.076172 17.123047 C 36.5455 17.130078 36.045031 17.448703 35.832031 17.970703 L 29.652344 33.125 C 29.368344 33.822 29.704391 34.616391 30.400391 34.900391 C 31.096391 35.184391 31.891781 34.849344 32.175781 34.152344 L 38.353516 18.998047 C 38.637516 18.301047 38.303422 17.508609 37.607422 17.224609 C 37.433172 17.153609 37.253062 17.120703 37.076172 17.123047 z M 12.941406 17.404297 C 12.764609 17.399781 12.583203 17.429297 12.408203 17.498047 C 11.708203 17.773047 11.365625 18.563672 11.640625 19.263672 L 14.207031 25.796875 C 14.482031 26.496875 15.272656 26.839453 15.972656 26.564453 C 16.672656 26.289453 17.015234 25.500781 16.740234 24.800781 L 14.173828 18.267578 C 13.967578 17.742578 13.471797 17.417844 12.941406 17.404297 z"/></svg>